<?xml version="1.0" encoding="utf-8"?><svg xmlns="http://www.w3.org/2000/svg" xmlns:xlink="http://www.w3.org/1999/xlink"><symbol viewBox="0 0 49 49" id="icon-slider1" xmlns="http://www.w3.org/2000/svg"><path fill-rule="evenodd" d="M24.257 48.017c-2.282 0-4.488-.328-6.581-.928l.177-.036c3.748-.723 6.469-4.025 6.469-7.851a7.997 7.997 0 00-2.116-5.413l9.448-9.461a7.355 7.355 0 012.563-1.67 7.59 7.59 0 004.42-4.566 7.625 7.625 0 00-.588-6.346c-1.84-3.199-5.919-4.574-9.486-3.196l-2.045.79c-2.638 1.018-4.478 3.414-4.799 6.251a1.888 1.888 0 01-.533 1.117L5.373 32.541a10.914 10.914 0 00-1.954 2.414l-.295.371A23.87 23.87 0 01.288 24.015C.288 10.781 11.041.014 24.257.014c13.216 0 23.969 10.767 23.969 24.001 0 13.235-10.753 24.002-23.969 24.002zM4.765 35.82a9.234 9.234 0 011.682-2.092l15.869-15.889a3.49 3.49 0 00.991-2.068c.255-2.243 1.706-4.135 3.787-4.939l2.045-.79c2.269-.873 4.786-.36 6.448 1.164-.876.024-1.652.132-2.135.614a1.373 1.373 0 00-.406.995.8.8 0 001.589.111c.32-.132 1.249-.126 1.766-.127h.277c.037 0 .07-.016.106-.021a6.02 6.02 0 01.347 4.779 5.998 5.998 0 01-3.489 3.608 8.847 8.847 0 00-1.267.62.782.782 0 00-.492-.185c-1.547 0-2.397-.601-2.397-.8a.8.8 0 10-1.598 0c0 1.105 1.131 1.982 2.763 2.281-.041.04-.086.074-.127.115l-13.52 13.539.232.506a7.525 7.525 0 01.695 3.161c0 1.835-.67 3.611-1.888 5.005l-.396.459-.891.179a24.11 24.11 0 01-10.765-9.239l.712-.897.062-.089z"/></symbol><symbol viewBox="0 0 49 49" id="icon-slider2" xmlns="http://www.w3.org/2000/svg"><path fill-rule="evenodd" d="M6.576 24.672a.798.798 0 110-1.597h.799a.798.798 0 110 1.597h-.799zm5.712-11.859a.793.793 0 01-.564-.234l-.565-.564a.798.798 0 111.129-1.13l.565.565a.796.796 0 01-.565 1.363zm.565 23.484l-.565.564a.794.794 0 01-1.129 0 .796.796 0 010-1.129l.565-.564a.796.796 0 011.129 0 .796.796 0 010 1.129zm33.656-3.69a.798.798 0 11-1.49-.575 22.262 22.262 0 001.505-8.061c0-12.33-10.036-22.361-22.371-22.361-12.335 0-22.371 10.031-22.371 22.361a22.312 22.312 0 0016.973 21.705.8.8 0 11-.384 1.551A23.909 23.909 0 01.184 23.971C.184 10.76 10.937.012 24.153.012c13.216 0 23.969 10.748 23.969 23.959 0 2.966-.543 5.872-1.613 8.636zM24.153 7.902a.798.798 0 01-.799-.799v-.798a.798.798 0 111.598 0v.798a.798.798 0 01-.799.799zm.799 12.891a3.19 3.19 0 012.397 3.081 3.198 3.198 0 01-3.196 3.194 3.19 3.19 0 01-3.052-2.299h-5.736a.799.799 0 110-1.597h5.675a3.194 3.194 0 012.314-2.379v-8.1a.798.798 0 111.598 0v8.1zm-.799 1.484a1.6 1.6 0 00-1.598 1.597 1.6 1.6 0 003.196 0 1.6 1.6 0 00-1.598-1.597zm11.864-9.464a.796.796 0 01-.565-1.363l.565-.565a.798.798 0 111.129 1.13l-.564.564a.793.793 0 01-.565.234zM26.003 29.694c1.914 0 3.521 1.156 4.541 2.565 1.02-1.409 2.627-2.565 4.541-2.565 3.051 0 5.49 2.366 5.81 5.632.033.214.114.974-.181 2.164-.436 1.755-1.438 3.347-2.899 4.606l-6.657 5.694a.944.944 0 01-1.228-.001l-6.655-5.692c-1.462-1.26-2.465-2.853-2.901-4.608-.297-1.189-.214-1.95-.181-2.163.32-3.266 2.758-5.632 5.81-5.632zm-4.077 7.409c.356 1.433 1.182 2.741 2.391 3.781l6.228 5.328 6.229-5.329c1.207-1.039 2.034-2.347 2.389-3.779.242-.975.154-1.522.154-1.526-.206-2.166-1.717-4.286-4.23-4.286-1.75 0-3.175 1.446-3.811 2.878l-.731 1.645-.73-1.645c-.636-1.432-2.062-2.878-3.811-2.878-2.512 0-4.024 2.12-4.22 4.213l-.013.083s-.086.547.155 1.515zm18.206-13.229c0-.442.357-.799.799-.799h.799a.799.799 0 110 1.597h-.799a.797.797 0 01-.799-.798z"/></symbol><symbol viewBox="0 0 37 26" id="icon-slider3" xmlns="http://www.w3.org/2000/svg"><path fill-rule="evenodd" d="M35.02 22.393h-2.116v1.604a1.02 1.02 0 01-1.012 1.025h-3.443a1.018 1.018 0 01-1.009-1.025v-1.604H8.684v1.604c0 .563-.466 1.025-1.027 1.025H4.214c-.56 0-1.021-.462-1.021-1.025v-1.604H1.087c-.561 0-1.02-.461-1.02-1.025v-4.233h.015c.166-1.48 2.56-2.8 6.264-3.7a958.544 958.544 0 00-1.512-1.516 3.383 3.383 0 010-4.757 3.32 3.32 0 014.712-.009 3.32 3.32 0 014.712.009 3.38 3.38 0 010 4.757l-.428.429a63.125 63.125 0 018.449 0l-.429-.429a3.381 3.381 0 010-4.757 3.317 3.317 0 012.36-.984c.85 0 1.702.325 2.352.975a3.32 3.32 0 012.353-.975c.854 0 1.708.328 2.36.984a3.383 3.383 0 010 4.757l-1.513 1.516c3.704.9 6.099 2.22 6.264 3.7l.004 4.233c0 .564-.449 1.025-1.01 1.025zm-.267-8.852a14.433 14.433 0 00-2.032-.893c1.561-1.949 1.443-4.802-.341-6.599a4.852 4.852 0 00-3.466-1.447c-.835 0-1.64.21-2.352.603a4.86 4.86 0 00-2.353-.603c-1.31 0-2.541.514-3.466 1.447a4.966 4.966 0 00-1.309 4.6 60.005 60.005 0 00-2.759 0c.082-.36.124-.731.124-1.109 0-1.319-.51-2.56-1.436-3.492a4.851 4.851 0 00-3.466-1.446c-.835 0-1.639.21-2.352.603a4.858 4.858 0 00-2.352-.603c-1.309 0-2.54.514-3.466 1.447-1.788 1.8-1.903 4.661-.344 6.6-.744.266-1.431.565-2.039.898V4.593h.005C1.621 2.047 8.995.007 18.052.007c9.058 0 16.432 2.039 16.704 4.586h-.003v8.948z"/></symbol></svg>