<svg xmlns="http://www.w3.org/2000/svg" width="49" height="49"><path fill-rule="evenodd" d="M24.257 48.017c-2.282 0-4.488-.328-6.581-.928l.177-.036c3.748-.723 6.469-4.025 6.469-7.851a7.997 7.997 0 00-2.116-5.413l9.448-9.461a7.355 7.355 0 012.563-1.67 7.59 7.59 0 004.42-4.566 7.625 7.625 0 00-.588-6.346c-1.84-3.199-5.919-4.574-9.486-3.196l-2.045.79c-2.638 1.018-4.478 3.414-4.799 6.251a1.888 1.888 0 01-.533 1.117L5.373 32.541a10.914 10.914 0 00-1.954 2.414l-.295.371A23.87 23.87 0 01.288 24.015C.288 10.781 11.041.014 24.257.014c13.216 0 23.969 10.767 23.969 24.001 0 13.235-10.753 24.002-23.969 24.002zM4.765 35.82a9.234 9.234 0 011.682-2.092l15.869-15.889a3.49 3.49 0 00.991-2.068c.255-2.243 1.706-4.135 3.787-4.939l2.045-.79c2.269-.873 4.786-.36 6.448 1.164-.876.024-1.652.132-2.135.614a1.373 1.373 0 00-.406.995.8.8 0 001.589.111c.32-.132 1.249-.126 1.766-.127h.277c.037 0 .07-.016.106-.021a6.02 6.02 0 01.347 4.779 5.998 5.998 0 01-3.489 3.608 8.847 8.847 0 00-1.267.62.782.782 0 00-.492-.185c-1.547 0-2.397-.601-2.397-.8a.8.8 0 10-1.598 0c0 1.105 1.131 1.982 2.763 2.281-.041.04-.086.074-.127.115l-13.52 13.539.232.506a7.525 7.525 0 01.695 3.161c0 1.835-.67 3.611-1.888 5.005l-.396.459-.891.179a24.11 24.11 0 01-10.765-9.239l.712-.897.062-.089z"/></svg>