<svg xmlns="http://www.w3.org/2000/svg" width="49" height="49"><path fill-rule="evenodd" d="M6.576 24.672a.798.798 0 110-1.597h.799a.798.798 0 110 1.597h-.799zm5.712-11.859a.793.793 0 01-.564-.234l-.565-.564a.798.798 0 111.129-1.13l.565.565a.796.796 0 01-.565 1.363zm.565 23.484l-.565.564a.794.794 0 01-1.129 0 .796.796 0 010-1.129l.565-.564a.796.796 0 011.129 0 .796.796 0 010 1.129zm33.656-3.69a.798.798 0 11-1.49-.575 22.262 22.262 0 001.505-8.061c0-12.33-10.036-22.361-22.371-22.361-12.335 0-22.371 10.031-22.371 22.361a22.312 22.312 0 0016.973 21.705.8.8 0 11-.384 1.551A23.909 23.909 0 01.184 23.971C.184 10.76 10.937.012 24.153.012c13.216 0 23.969 10.748 23.969 23.959 0 2.966-.543 5.872-1.613 8.636zM24.153 7.902a.798.798 0 01-.799-.799v-.798a.798.798 0 111.598 0v.798a.798.798 0 01-.799.799zm.799 12.891a3.19 3.19 0 012.397 3.081 3.198 3.198 0 01-3.196 3.194 3.19 3.19 0 01-3.052-2.299h-5.736a.799.799 0 110-1.597h5.675a3.194 3.194 0 012.314-2.379v-8.1a.798.798 0 111.598 0v8.1zm-.799 1.484a1.6 1.6 0 00-1.598 1.597 1.6 1.6 0 003.196 0 1.6 1.6 0 00-1.598-1.597zm11.864-9.464a.796.796 0 01-.565-1.363l.565-.565a.798.798 0 111.129 1.13l-.564.564a.793.793 0 01-.565.234zM26.003 29.694c1.914 0 3.521 1.156 4.541 2.565 1.02-1.409 2.627-2.565 4.541-2.565 3.051 0 5.49 2.366 5.81 5.632.033.214.114.974-.181 2.164-.436 1.755-1.438 3.347-2.899 4.606l-6.657 5.694a.944.944 0 01-1.228-.001l-6.655-5.692c-1.462-1.26-2.465-2.853-2.901-4.608-.297-1.189-.214-1.95-.181-2.163.32-3.266 2.758-5.632 5.81-5.632zm-4.077 7.409c.356 1.433 1.182 2.741 2.391 3.781l6.228 5.328 6.229-5.329c1.207-1.039 2.034-2.347 2.389-3.779.242-.975.154-1.522.154-1.526-.206-2.166-1.717-4.286-4.23-4.286-1.75 0-3.175 1.446-3.811 2.878l-.731 1.645-.73-1.645c-.636-1.432-2.062-2.878-3.811-2.878-2.512 0-4.024 2.12-4.22 4.213l-.013.083s-.086.547.155 1.515zm18.206-13.229c0-.442.357-.799.799-.799h.799a.799.799 0 110 1.597h-.799a.797.797 0 01-.799-.798z"/></svg>