<svg xmlns="http://www.w3.org/2000/svg" width="37" height="26"><path fill-rule="evenodd" d="M35.02 22.393h-2.116v1.604a1.02 1.02 0 01-1.012 1.025h-3.443a1.018 1.018 0 01-1.009-1.025v-1.604H8.684v1.604c0 .563-.466 1.025-1.027 1.025H4.214c-.56 0-1.021-.462-1.021-1.025v-1.604H1.087c-.561 0-1.02-.461-1.02-1.025v-4.233h.015c.166-1.48 2.56-2.8 6.264-3.7a958.544 958.544 0 00-1.512-1.516 3.383 3.383 0 010-4.757 3.32 3.32 0 014.712-.009 3.32 3.32 0 014.712.009 3.38 3.38 0 010 4.757l-.428.429a63.125 63.125 0 018.449 0l-.429-.429a3.381 3.381 0 010-4.757 3.317 3.317 0 012.36-.984c.85 0 1.702.325 2.352.975a3.32 3.32 0 012.353-.975c.854 0 1.708.328 2.36.984a3.383 3.383 0 010 4.757l-1.513 1.516c3.704.9 6.099 2.22 6.264 3.7l.004 4.233c0 .564-.449 1.025-1.01 1.025zm-.267-8.852a14.433 14.433 0 00-2.032-.893c1.561-1.949 1.443-4.802-.341-6.599a4.852 4.852 0 00-3.466-1.447c-.835 0-1.64.21-2.352.603a4.86 4.86 0 00-2.353-.603c-1.31 0-2.541.514-3.466 1.447a4.966 4.966 0 00-1.309 4.6 60.005 60.005 0 00-2.759 0c.082-.36.124-.731.124-1.109 0-1.319-.51-2.56-1.436-3.492a4.851 4.851 0 00-3.466-1.446c-.835 0-1.639.21-2.352.603a4.858 4.858 0 00-2.352-.603c-1.309 0-2.54.514-3.466 1.447-1.788 1.8-1.903 4.661-.344 6.6-.744.266-1.431.565-2.039.898V4.593h.005C1.621 2.047 8.995.007 18.052.007c9.058 0 16.432 2.039 16.704 4.586h-.003v8.948z"/></svg>